{
  "asset": {
    "version": "2.0",
    "generator": "THREE.GLTFExporter"
  },
  "scenes": [
    {
      "nodes": [
        2
      ]
    }
  ],
  "scene": 0,
  "nodes": [
    {
      "name": "Cube033",
      "extras": {
        "name": "Cube.033",
        "ant_landscape": {}
      },
      "mesh": 0
    },
    {
      "name": "BézierCurve016",
      "extras": {
        "name": "BézierCurve.016",
        "ant_landscape": {}
      },
      "mesh": 1
    },
    {
      "matrix": [
        1,
        0,
        0,
        0,
        0,
        1,
        0,
        0,
        0,
        0,
        1,
        0,
        0,
        2.12,
        0,
        1
      ],
      "name": "Scene",
      "extras": {
        "uvpm3_props": {
          "scripted_props": {},
          "active_main_mode_id": 0,
          "lock_overlapping_enable": 1,
          "lock_overlapping_mode": 2,
          "fixed_scale": 0,
          "numbered_groups_descriptors": {
            "stack_group": {},
            "lock_group": {},
            "track_group": {}
          }
        },
        "settings": {
          "bake_running": 0,
          "confirm_bake_state": 0,
          "edit_all_mode": 0
        },
        "lc": {},
        "projectTime": 34704,
        "addon_copy_global_transform_relative_ob": {}
      },
      "children": [
        0,
        1
      ]
    }
  ],
  "bufferViews": [
    {
      "buffer": 0,
      "byteOffset": 0,
      "byteLength": 60732,
      "target": 34962,
      "byteStride": 12
    },
    {
      "buffer": 0,
      "byteOffset": 60732,
      "byteLength": 60732,
      "target": 34962,
      "byteStride": 12
    },
    {
      "buffer": 0,
      "byteOffset": 121464,
      "byteLength": 60708,
      "target": 34963
    },
    {
      "buffer": 0,
      "byteOffset": 182172,
      "byteLength": 10980,
      "target": 34962,
      "byteStride": 12
    },
    {
      "buffer": 0,
      "byteOffset": 193152,
      "byteLength": 10980,
      "target": 34962,
      "byteStride": 12
    },
    {
      "buffer": 0,
      "byteOffset": 204132,
      "byteLength": 7320,
      "target": 34962,
      "byteStride": 8
    },
    {
      "buffer": 0,
      "byteOffset": 211452,
      "byteLength": 7200,
      "target": 34963
    }
  ],
  "buffers": [
    {
      "byteLength": 218652,
      "uri": "data:application/octet-stream;base64,"
    }
  ],
  "accessors": [
    {
      "bufferView": 0,
      "componentType": 5126,
      "count": 5061,
      "max": [
        1.6699289083480835,
        -1.249274730682373,
        0.23180627822875977
      ],
      "min": [
        0.881718635559082,
        -2.332374095916748,
        -0.0787622332572937
      ],
      "type": "VEC3"
    },
    {
      "bufferView": 1,
      "componentType": 5126,
      "count": 5061,
      "max": [
        0.9997034072875977,
        0.9997997879981995,
        0.9999482035636902
      ],
      "min": [
        -0.9999529123306274,
        -0.9996703267097473,
        -0.9999796152114868
      ],
      "type": "VEC3"
    },
    {
      "bufferView": 2,
      "componentType": 5123,
      "count": 30354,
      "max": [
        5060
      ],
      "min": [
        0
      ],
      "type": "SCALAR"
    },
    {
      "bufferView": 3,
      "componentType": 5126,
      "count": 915,
      "max": [
        1.7509900331497192,
        -1.3753693103790283,
        0.008000016212463379
      ],
      "min": [
        0.8668766021728516,
        -2.2032666206359863,
        -0.008000016212463379
      ],
      "type": "VEC3"
    },
    {
      "bufferView": 4,
      "componentType": 5126,
      "count": 915,
      "max": [
        0.9905580878257751,
        0.9937759637832642,
        1
      ],
      "min": [
        -0.9429977536201477,
        -0.9917474985122681,
        -1
      ],
      "type": "VEC3"
    },
    {
      "bufferView": 5,
      "componentType": 5126,
      "count": 915,
      "max": [
        1,
        1
      ],
      "min": [
        0,
        0
      ],
      "type": "VEC2"
    },
    {
      "bufferView": 6,
      "componentType": 5123,
      "count": 3600,
      "max": [
        914
      ],
      "min": [
        0
      ],
      "type": "SCALAR"
    }
  ],
  "materials": [
    {
      "pbrMetallicRoughness": {
        "baseColorFactor": [
          0.60418701171875,
          0.10573740303516388,
          0.0986722931265831,
          1
        ],
        "metallicFactor": 0,
        "roughnessFactor": 0.5
      },
      "doubleSided": true,
      "name": "Red_Dark"
    },
    {
      "pbrMetallicRoughness": {
        "baseColorFactor": [
          0,
          0,
          0,
          1
        ],
        "metallicFactor": 0,
        "roughnessFactor": 1
      },
      "doubleSided": true,
      "name": "Black_Outline"
    }
  ],
  "meshes": [
    {
      "primitives": [
        {
          "mode": 4,
          "attributes": {
            "POSITION": 0,
            "NORMAL": 1
          },
          "indices": 2,
          "material": 0
        }
      ]
    },
    {
      "primitives": [
        {
          "mode": 4,
          "attributes": {
            "POSITION": 3,
            "NORMAL": 4,
            "TEXCOORD_0": 5
          },
          "indices": 6,
          "material": 1
        }
      ]
    }
  ]
}