{
  "asset": {
    "version": "2.0",
    "generator": "THREE.GLTFExporter"
  },
  "scenes": [
    {
      "nodes": [
        3
      ]
    }
  ],
  "scene": 0,
  "nodes": [
    {
      "name": "Cube022",
      "extras": {
        "name": "Cube.022",
        "ant_landscape": {}
      },
      "mesh": 0
    },
    {
      "name": "NurbsCircle",
      "extras": {
        "name": "NurbsCircle",
        "ant_landscape": {}
      },
      "mesh": 1
    },
    {
      "name": "BézierCurve008",
      "extras": {
        "name": "BézierCurve.008",
        "ant_landscape": {}
      },
      "mesh": 2
    },
    {
      "name": "Scene",
      "extras": {
        "uvpm3_props": {
          "scripted_props": {},
          "active_main_mode_id": 0,
          "lock_overlapping_enable": 1,
          "lock_overlapping_mode": 2,
          "fixed_scale": 0,
          "numbered_groups_descriptors": {
            "stack_group": {},
            "lock_group": {},
            "track_group": {}
          }
        },
        "settings": {
          "bake_running": 0,
          "confirm_bake_state": 0,
          "edit_all_mode": 0
        },
        "lc": {},
        "projectTime": 34704,
        "addon_copy_global_transform_relative_ob": {}
      },
      "children": [
        0,
        1,
        2
      ]
    }
  ],
  "bufferViews": [
    {
      "buffer": 0,
      "byteOffset": 0,
      "byteLength": 26712,
      "target": 34962,
      "byteStride": 12
    },
    {
      "buffer": 0,
      "byteOffset": 26712,
      "byteLength": 26712,
      "target": 34962,
      "byteStride": 12
    },
    {
      "buffer": 0,
      "byteOffset": 53424,
      "byteLength": 26688,
      "target": 34963
    },
    {
      "buffer": 0,
      "byteOffset": 80112,
      "byteLength": 5292,
      "target": 34962,
      "byteStride": 12
    },
    {
      "buffer": 0,
      "byteOffset": 85404,
      "byteLength": 5292,
      "target": 34962,
      "byteStride": 12
    },
    {
      "buffer": 0,
      "byteOffset": 90696,
      "byteLength": 3528,
      "target": 34962,
      "byteStride": 8
    },
    {
      "buffer": 0,
      "byteOffset": 94224,
      "byteLength": 4608,
      "target": 34963
    },
    {
      "buffer": 0,
      "byteOffset": 98832,
      "byteLength": 12444,
      "target": 34962,
      "byteStride": 12
    },
    {
      "buffer": 0,
      "byteOffset": 111276,
      "byteLength": 12444,
      "target": 34962,
      "byteStride": 12
    },
    {
      "buffer": 0,
      "byteOffset": 123720,
      "byteLength": 8296,
      "target": 34962,
      "byteStride": 8
    },
    {
      "buffer": 0,
      "byteOffset": 132016,
      "byteLength": 8160,
      "target": 34963
    }
  ],
  "buffers": [
    {
      "byteLength": 140176,
      "uri": "data:application/octet-stream;base64,"
    }
  ],
  "accessors": [
    {
      "bufferView": 0,
      "componentType": 5126,
      "count": 2226,
      "max": [
        0.9380216598510742,
        0.5101196765899658,
        0.2696492671966553
      ],
      "min": [
        0.29144763946533203,
        -0.6004257202148438,
        -0.09540832042694092
      ],
      "type": "VEC3"
    },
    {
      "bufferView": 1,
      "componentType": 5126,
      "count": 2226,
      "max": [
        0.99977046251297,
        0.9993336200714111,
        0.999900758266449
      ],
      "min": [
        -0.9999709129333496,
        -0.999904990196228,
        -0.9999053478240967
      ],
      "type": "VEC3"
    },
    {
      "bufferView": 2,
      "componentType": 5123,
      "count": 13344,
      "max": [
        2225
      ],
      "min": [
        0
      ],
      "type": "SCALAR"
    },
    {
      "bufferView": 3,
      "componentType": 5126,
      "count": 441,
      "max": [
        0.9554164409637451,
        0.07402276992797852,
        0.24755644798278809
      ],
      "min": [
        0.41004085540771484,
        -0.16760826110839844,
        -0.18419808149337769
      ],
      "type": "VEC3"
    },
    {
      "bufferView": 4,
      "componentType": 5126,
      "count": 441,
      "max": [
        0.9686440825462341,
        0.9994438886642456,
        0.9999585151672363
      ],
      "min": [
        -0.9724798798561096,
        -0.9999417662620544,
        -0.9997699856758118
      ],
      "type": "VEC3"
    },
    {
      "bufferView": 5,
      "componentType": 5126,
      "count": 441,
      "max": [
        1,
        1
      ],
      "min": [
        0,
        0
      ],
      "type": "VEC2"
    },
    {
      "bufferView": 6,
      "componentType": 5123,
      "count": 2304,
      "max": [
        440
      ],
      "min": [
        0
      ],
      "type": "SCALAR"
    },
    {
      "bufferView": 7,
      "componentType": 5126,
      "count": 1037,
      "max": [
        1.0030806064605713,
        0.226243257522583,
        0.008000016212463379
      ],
      "min": [
        0.3909904956817627,
        -0.6660192012786865,
        -0.008000016212463379
      ],
      "type": "VEC3"
    },
    {
      "bufferView": 8,
      "componentType": 5126,
      "count": 1037,
      "max": [
        0.9996799826622009,
        0.9999075531959534,
        1
      ],
      "min": [
        -0.9996799826622009,
        -0.9864263534545898,
        -1
      ],
      "type": "VEC3"
    },
    {
      "bufferView": 9,
      "componentType": 5126,
      "count": 1037,
      "max": [
        1,
        1
      ],
      "min": [
        0,
        0
      ],
      "type": "VEC2"
    },
    {
      "bufferView": 10,
      "componentType": 5123,
      "count": 4080,
      "max": [
        1036
      ],
      "min": [
        0
      ],
      "type": "SCALAR"
    }
  ],
  "materials": [
    {
      "pbrMetallicRoughness": {
        "baseColorFactor": [
          0.2461996078491211,
          0.3419203758239746,
          0.7835447788238525,
          1
        ],
        "metallicFactor": 0,
        "roughnessFactor": 0.5
      },
      "doubleSided": true,
      "name": "Purpley_Blue"
    },
    {
      "pbrMetallicRoughness": {
        "baseColorFactor": [
          0.778020977973938,
          0.7394058108329773,
          0.15560418367385864,
          1
        ],
        "metallicFactor": 0,
        "roughnessFactor": 0.5
      },
      "doubleSided": true,
      "name": "Yellow"
    },
    {
      "pbrMetallicRoughness": {
        "baseColorFactor": [
          0,
          0,
          0,
          1
        ],
        "metallicFactor": 0,
        "roughnessFactor": 1
      },
      "doubleSided": true,
      "name": "Black_Outline"
    }
  ],
  "meshes": [
    {
      "primitives": [
        {
          "mode": 4,
          "attributes": {
            "POSITION": 0,
            "NORMAL": 1
          },
          "indices": 2,
          "material": 0
        }
      ]
    },
    {
      "primitives": [
        {
          "mode": 4,
          "attributes": {
            "POSITION": 3,
            "NORMAL": 4,
            "TEXCOORD_0": 5
          },
          "indices": 6,
          "material": 1
        }
      ]
    },
    {
      "primitives": [
        {
          "mode": 4,
          "attributes": {
            "POSITION": 7,
            "NORMAL": 8,
            "TEXCOORD_0": 9
          },
          "indices": 10,
          "material": 2
        }
      ]
    }
  ]
}