{
  "asset": {
    "version": "2.0",
    "generator": "THREE.GLTFExporter"
  },
  "scenes": [
    {
      "nodes": [
        2
      ]
    }
  ],
  "scene": 0,
  "nodes": [
    {
      "name": "Cube029",
      "extras": {
        "name": "Cube.029",
        "ant_landscape": {}
      },
      "mesh": 0
    },
    {
      "name": "BézierCurve013",
      "extras": {
        "name": "BézierCurve.013",
        "ant_landscape": {}
      },
      "mesh": 1
    },
    {
      "matrix": [
        1,
        0,
        0,
        0,
        0,
        1,
        0,
        0,
        0,
        0,
        1,
        0,
        0,
        1.48,
        0,
        1
      ],
      "name": "Scene",
      "extras": {
        "uvpm3_props": {
          "scripted_props": {},
          "active_main_mode_id": 0,
          "lock_overlapping_enable": 1,
          "lock_overlapping_mode": 2,
          "fixed_scale": 0,
          "numbered_groups_descriptors": {
            "stack_group": {},
            "lock_group": {},
            "track_group": {}
          }
        },
        "settings": {
          "bake_running": 0,
          "confirm_bake_state": 0,
          "edit_all_mode": 0
        },
        "lc": {},
        "projectTime": 34704,
        "addon_copy_global_transform_relative_ob": {}
      },
      "children": [
        0,
        1
      ]
    }
  ],
  "bufferViews": [
    {
      "buffer": 0,
      "byteOffset": 0,
      "byteLength": 39588,
      "target": 34962,
      "byteStride": 12
    },
    {
      "buffer": 0,
      "byteOffset": 39588,
      "byteLength": 39588,
      "target": 34962,
      "byteStride": 12
    },
    {
      "buffer": 0,
      "byteOffset": 79176,
      "byteLength": 39528,
      "target": 34963
    },
    {
      "buffer": 0,
      "byteOffset": 118704,
      "byteLength": 18300,
      "target": 34962,
      "byteStride": 12
    },
    {
      "buffer": 0,
      "byteOffset": 137004,
      "byteLength": 18300,
      "target": 34962,
      "byteStride": 12
    },
    {
      "buffer": 0,
      "byteOffset": 155304,
      "byteLength": 12200,
      "target": 34962,
      "byteStride": 8
    },
    {
      "buffer": 0,
      "byteOffset": 167504,
      "byteLength": 12000,
      "target": 34963
    }
  ],
  "buffers": [
    {
      "byteLength": 179504,
      "uri": "data:application/octet-stream;base64,"
    }
  ],
  "accessors": [
    {
      "bufferView": 0,
      "componentType": 5126,
      "count": 3299,
      "max": [
        2.461848735809326,
        -0.5382663011550903,
        0.1989816427230835
      ],
      "min": [
        1.5391374826431274,
        -1.6531389951705933,
        -0.03952515125274658
      ],
      "type": "VEC3"
    },
    {
      "bufferView": 1,
      "componentType": 5126,
      "count": 3299,
      "max": [
        0.9993561506271362,
        0.9999847412109375,
        0.9999737739562988
      ],
      "min": [
        -1,
        -0.9997488260269165,
        -0.9999350309371948
      ],
      "type": "VEC3"
    },
    {
      "bufferView": 2,
      "componentType": 5123,
      "count": 19764,
      "max": [
        3298
      ],
      "min": [
        0
      ],
      "type": "SCALAR"
    },
    {
      "bufferView": 3,
      "componentType": 5126,
      "count": 1525,
      "max": [
        2.4629225730895996,
        -0.5930706262588501,
        0.008000016212463379
      ],
      "min": [
        1.503467082977295,
        -1.6067588329315186,
        -0.008000016212463379
      ],
      "type": "VEC3"
    },
    {
      "bufferView": 4,
      "componentType": 5126,
      "count": 1525,
      "max": [
        0.994804859161377,
        0.9989367723464966,
        1
      ],
      "min": [
        -0.9989824891090393,
        -0.9998307228088379,
        -1
      ],
      "type": "VEC3"
    },
    {
      "bufferView": 5,
      "componentType": 5126,
      "count": 1525,
      "max": [
        1,
        1
      ],
      "min": [
        0,
        0
      ],
      "type": "VEC2"
    },
    {
      "bufferView": 6,
      "componentType": 5123,
      "count": 6000,
      "max": [
        1524
      ],
      "min": [
        0
      ],
      "type": "SCALAR"
    }
  ],
  "materials": [
    {
      "pbrMetallicRoughness": {
        "baseColorFactor": [
          0.7841004133224487,
          0.5683379173278809,
          0.00890836026519537,
          1
        ],
        "metallicFactor": 0,
        "roughnessFactor": 0.5
      },
      "doubleSided": true,
      "name": "Ohra"
    },
    {
      "pbrMetallicRoughness": {
        "baseColorFactor": [
          0,
          0,
          0,
          1
        ],
        "metallicFactor": 0,
        "roughnessFactor": 1
      },
      "doubleSided": true,
      "name": "Black_Outline"
    }
  ],
  "meshes": [
    {
      "primitives": [
        {
          "mode": 4,
          "attributes": {
            "POSITION": 0,
            "NORMAL": 1
          },
          "indices": 2,
          "material": 0
        }
      ]
    },
    {
      "primitives": [
        {
          "mode": 4,
          "attributes": {
            "POSITION": 3,
            "NORMAL": 4,
            "TEXCOORD_0": 5
          },
          "indices": 6,
          "material": 1
        }
      ]
    }
  ]
}