{
  "asset": {
    "version": "2.0",
    "generator": "THREE.GLTFExporter"
  },
  "scenes": [
    {
      "nodes": [
        2
      ]
    }
  ],
  "scene": 0,
  "nodes": [
    {
      "name": "Cube030",
      "extras": {
        "name": "Cube.030",
        "ant_landscape": {}
      },
      "mesh": 0
    },
    {
      "name": "BézierCurve014",
      "extras": {
        "name": "BézierCurve.014",
        "ant_landscape": {}
      },
      "mesh": 1
    },
    {
      "matrix": [
        1,
        0,
        0,
        0,
        0,
        1,
        0,
        0,
        0,
        0,
        1,
        0,
        0,
        0.67,
        0,
        1
      ],
      "name": "Scene",
      "extras": {
        "uvpm3_props": {
          "scripted_props": {},
          "active_main_mode_id": 0,
          "lock_overlapping_enable": 1,
          "lock_overlapping_mode": 2,
          "fixed_scale": 0,
          "numbered_groups_descriptors": {
            "stack_group": {},
            "lock_group": {},
            "track_group": {}
          }
        },
        "settings": {
          "bake_running": 0,
          "confirm_bake_state": 0,
          "edit_all_mode": 0
        },
        "lc": {},
        "projectTime": 34704,
        "addon_copy_global_transform_relative_ob": {}
      },
      "children": [
        0,
        1
      ]
    }
  ],
  "bufferViews": [
    {
      "buffer": 0,
      "byteOffset": 0,
      "byteLength": 60840,
      "target": 34962,
      "byteStride": 12
    },
    {
      "buffer": 0,
      "byteOffset": 60840,
      "byteLength": 60840,
      "target": 34962,
      "byteStride": 12
    },
    {
      "buffer": 0,
      "byteOffset": 121680,
      "byteLength": 60816,
      "target": 34963
    },
    {
      "buffer": 0,
      "byteOffset": 182496,
      "byteLength": 9516,
      "target": 34962,
      "byteStride": 12
    },
    {
      "buffer": 0,
      "byteOffset": 192012,
      "byteLength": 9516,
      "target": 34962,
      "byteStride": 12
    },
    {
      "buffer": 0,
      "byteOffset": 201528,
      "byteLength": 6344,
      "target": 34962,
      "byteStride": 8
    },
    {
      "buffer": 0,
      "byteOffset": 207872,
      "byteLength": 6240,
      "target": 34963
    }
  ],
  "buffers": [
    {
      "byteLength": 214112,
      "uri": "data:application/octet-stream;base64,"
    }
  ],
  "accessors": [
    {
      "bufferView": 0,
      "componentType": 5126,
      "count": 5070,
      "max": [
        2.39158296585083,
        -0.16949939727783203,
        0.23522281646728516
      ],
      "min": [
        1.5538175106048584,
        -0.9127628803253174,
        -0.03881043195724487
      ],
      "type": "VEC3"
    },
    {
      "bufferView": 1,
      "componentType": 5126,
      "count": 5070,
      "max": [
        0.9994756579399109,
        0.9999311566352844,
        0.9999810457229614
      ],
      "min": [
        -0.9994955658912659,
        -0.9989745020866394,
        -0.999880313873291
      ],
      "type": "VEC3"
    },
    {
      "bufferView": 2,
      "componentType": 5123,
      "count": 30408,
      "max": [
        5069
      ],
      "min": [
        0
      ],
      "type": "SCALAR"
    },
    {
      "bufferView": 3,
      "componentType": 5126,
      "count": 793,
      "max": [
        2.470458745956421,
        -0.10602831840515137,
        0.008000016212463379
      ],
      "min": [
        1.7760378122329712,
        -0.860968828201294,
        -0.008000016212463379
      ],
      "type": "VEC3"
    },
    {
      "bufferView": 4,
      "componentType": 5126,
      "count": 793,
      "max": [
        0.9091847538948059,
        0.9998213648796082,
        1
      ],
      "min": [
        -0.8658789992332458,
        -0.9998213648796082,
        -1
      ],
      "type": "VEC3"
    },
    {
      "bufferView": 5,
      "componentType": 5126,
      "count": 793,
      "max": [
        1,
        1
      ],
      "min": [
        0,
        0
      ],
      "type": "VEC2"
    },
    {
      "bufferView": 6,
      "componentType": 5123,
      "count": 3120,
      "max": [
        792
      ],
      "min": [
        0
      ],
      "type": "SCALAR"
    }
  ],
  "materials": [
    {
      "pbrMetallicRoughness": {
        "baseColorFactor": [
          0.778020977973938,
          0.7394058108329773,
          0.15560418367385864,
          1
        ],
        "metallicFactor": 0,
        "roughnessFactor": 0.5
      },
      "doubleSided": true,
      "name": "Yellow"
    },
    {
      "pbrMetallicRoughness": {
        "baseColorFactor": [
          0,
          0,
          0,
          1
        ],
        "metallicFactor": 0,
        "roughnessFactor": 1
      },
      "doubleSided": true,
      "name": "Black_Outline"
    }
  ],
  "meshes": [
    {
      "primitives": [
        {
          "mode": 4,
          "attributes": {
            "POSITION": 0,
            "NORMAL": 1
          },
          "indices": 2,
          "material": 0
        }
      ]
    },
    {
      "primitives": [
        {
          "mode": 4,
          "attributes": {
            "POSITION": 3,
            "NORMAL": 4,
            "TEXCOORD_0": 5
          },
          "indices": 6,
          "material": 1
        }
      ]
    }
  ]
}