{
  "asset": {
    "version": "2.0",
    "generator": "THREE.GLTFExporter"
  },
  "scenes": [
    {
      "nodes": [
        2
      ]
    }
  ],
  "scene": 0,
  "nodes": [
    {
      "name": "Cube019",
      "extras": {
        "name": "Cube.019",
        "ant_landscape": {}
      },
      "mesh": 0
    },
    {
      "name": "BézierCurve007",
      "extras": {
        "name": "BézierCurve.007",
        "ant_landscape": {}
      },
      "mesh": 1
    },
    {
      "name": "Scene",
      "extras": {
        "uvpm3_props": {
          "scripted_props": {},
          "active_main_mode_id": 0,
          "lock_overlapping_enable": 1,
          "lock_overlapping_mode": 2,
          "fixed_scale": 0,
          "numbered_groups_descriptors": {
            "stack_group": {},
            "lock_group": {},
            "track_group": {}
          }
        },
        "settings": {
          "bake_running": 0,
          "confirm_bake_state": 0,
          "edit_all_mode": 0
        },
        "lc": {},
        "projectTime": 34704,
        "addon_copy_global_transform_relative_ob": {}
      },
      "children": [
        0,
        1
      ]
    }
  ],
  "bufferViews": [
    {
      "buffer": 0,
      "byteOffset": 0,
      "byteLength": 51372,
      "target": 34962,
      "byteStride": 12
    },
    {
      "buffer": 0,
      "byteOffset": 51372,
      "byteLength": 51372,
      "target": 34962,
      "byteStride": 12
    },
    {
      "buffer": 0,
      "byteOffset": 102744,
      "byteLength": 51372,
      "target": 34963
    },
    {
      "buffer": 0,
      "byteOffset": 154116,
      "byteLength": 27816,
      "target": 34962,
      "byteStride": 12
    },
    {
      "buffer": 0,
      "byteOffset": 181932,
      "byteLength": 27816,
      "target": 34962,
      "byteStride": 12
    },
    {
      "buffer": 0,
      "byteOffset": 209748,
      "byteLength": 18544,
      "target": 34962,
      "byteStride": 8
    },
    {
      "buffer": 0,
      "byteOffset": 228292,
      "byteLength": 18240,
      "target": 34963
    }
  ],
  "buffers": [
    {
      "byteLength": 246532,
      "uri": "data:application/octet-stream;base64,"
    }
  ],
  "accessors": [
    {
      "bufferView": 0,
      "componentType": 5126,
      "count": 4281,
      "max": [
        0.8610587120056152,
        1.2917804718017578,
        0.2438192367553711
      ],
      "min": [
        -0.67340087890625,
        -0.08282208442687988,
        -0.07799571752548218
      ],
      "type": "VEC3"
    },
    {
      "bufferView": 1,
      "componentType": 5126,
      "count": 4281,
      "max": [
        0.9999611377716064,
        0.9997918009757996,
        0.9999750852584839
      ],
      "min": [
        -0.9998451471328735,
        -0.999975323677063,
        -0.9999617338180542
      ],
      "type": "VEC3"
    },
    {
      "bufferView": 2,
      "componentType": 5123,
      "count": 25686,
      "max": [
        4280
      ],
      "min": [
        0
      ],
      "type": "SCALAR"
    },
    {
      "bufferView": 3,
      "componentType": 5126,
      "count": 2318,
      "max": [
        0.8536691665649414,
        1.319850206375122,
        0.008000016212463379
      ],
      "min": [
        -0.7627394199371338,
        -0.11453771591186523,
        -0.008000016212463379
      ],
      "type": "VEC3"
    },
    {
      "bufferView": 4,
      "componentType": 5126,
      "count": 2318,
      "max": [
        0.9932255148887634,
        0.9995706677436829,
        1
      ],
      "min": [
        -0.9999167919158936,
        -0.999281644821167,
        -1
      ],
      "type": "VEC3"
    },
    {
      "bufferView": 5,
      "componentType": 5126,
      "count": 2318,
      "max": [
        1,
        1
      ],
      "min": [
        0,
        0
      ],
      "type": "VEC2"
    },
    {
      "bufferView": 6,
      "componentType": 5123,
      "count": 9120,
      "max": [
        2317
      ],
      "min": [
        0
      ],
      "type": "SCALAR"
    }
  ],
  "materials": [
    {
      "pbrMetallicRoughness": {
        "baseColorFactor": [
          0.7841004133224487,
          0.5683379173278809,
          0.00890836026519537,
          1
        ],
        "metallicFactor": 0,
        "roughnessFactor": 0.5
      },
      "doubleSided": true,
      "name": "Ohra"
    },
    {
      "pbrMetallicRoughness": {
        "baseColorFactor": [
          0,
          0,
          0,
          1
        ],
        "metallicFactor": 0,
        "roughnessFactor": 1
      },
      "doubleSided": true,
      "name": "Black_Outline"
    }
  ],
  "meshes": [
    {
      "primitives": [
        {
          "mode": 4,
          "attributes": {
            "POSITION": 0,
            "NORMAL": 1
          },
          "indices": 2,
          "material": 0
        }
      ]
    },
    {
      "primitives": [
        {
          "mode": 4,
          "attributes": {
            "POSITION": 3,
            "NORMAL": 4,
            "TEXCOORD_0": 5
          },
          "indices": 6,
          "material": 1
        }
      ]
    }
  ]
}